<svg width="675" height="463" viewBox="0 0 675 463" fill="none" xmlns="http://www.w3.org/2000/svg">
<mask id="mask0_100_452" style="mask-type:luminance" maskUnits="userSpaceOnUse" x="-149" y="0" width="824" height="463">
<path d="M674.111 0H-149V463H674.111V0Z" fill="white"/>
</mask>
<g mask="url(#mask0_100_452)">
<mask id="mask1_100_452" style="mask-type:luminance" maskUnits="userSpaceOnUse" x="-85" y="0" width="695" height="463">
<path d="M-84.3729 0.214355H609.484V462.786H-84.3729V0.214355Z" fill="white"/>
</mask>
<g mask="url(#mask1_100_452)">
<path d="M50.1877 154.165H465.461" stroke="#DDD6D4" stroke-width="1.63658" stroke-miterlimit="10"/>
<path d="M460.039 383.876H55.6114C52.6159 383.876 50.1877 381.448 50.1877 378.453V132.364C50.1877 129.37 52.6159 126.942 55.6114 126.942H460.039C463.034 126.942 465.461 129.37 465.461 132.364V378.453C465.461 381.448 463.034 383.876 460.039 383.876Z" stroke="#DDD6D4" stroke-width="1.63658" stroke-miterlimit="10"/>
<path d="M77.5563 140.831C77.5563 142.928 75.8557 144.63 73.7576 144.63C71.6594 144.63 69.9588 142.928 69.9588 140.831C69.9588 138.733 71.6594 137.032 73.7576 137.032C75.8557 137.032 77.5563 138.733 77.5563 140.831Z" fill="#FFB8A3"/>
<path d="M92.3188 140.831C92.3188 142.928 90.6181 144.63 88.52 144.63C86.4219 144.63 84.7213 142.928 84.7213 140.831C84.7213 138.733 86.4219 137.032 88.52 137.032C90.6181 137.032 92.3188 138.733 92.3188 140.831Z" fill="#E97552"/>
<path d="M107.082 140.831C107.082 142.928 105.381 144.63 103.283 144.63C101.185 144.63 99.4844 142.928 99.4844 140.831C99.4844 138.733 101.185 137.032 103.283 137.032C105.381 137.032 107.082 138.733 107.082 140.831Z" fill="#593C2B"/>
<path d="M445.406 219.782H496.132C498.898 219.782 501.141 217.54 501.141 214.775V173.202C501.141 170.437 498.898 168.195 496.132 168.195H445.406C442.641 168.195 440.399 170.437 440.399 173.202V214.775C440.399 217.54 442.641 219.782 445.406 219.782Z" fill="#D19A89"/>
<path d="M484.626 202.565H460.882H456.595V183.768H484.626V188.467V202.565Z" stroke="white" stroke-width="1.36964" stroke-linecap="round" stroke-linejoin="round"/>
<path d="M456.596 183.768L470.569 193.982L484.625 183.768" fill="white"/>
<path d="M456.596 183.768L470.61 170.801L484.625 183.768" stroke="white" stroke-width="1.36964" stroke-linecap="round" stroke-linejoin="round"/>
<path d="M67.2717 303.972H18.9983C15.9489 303.972 13.4774 301.499 13.4774 298.45V251.831C13.4774 248.781 15.9489 246.311 18.9983 246.311H67.2717C70.3212 246.311 72.7935 248.781 72.7935 251.831V298.45C72.7935 301.499 70.3212 303.972 67.2717 303.972Z" fill="#FFB8A3"/>
<path d="M59.4365 275.679C59.4365 284.482 52.3006 291.619 43.4973 291.619C34.694 291.619 27.5581 284.482 27.5581 275.679C27.5581 266.876 34.694 259.74 43.4973 259.74C52.3006 259.74 59.4365 266.876 59.4365 275.679Z" stroke="white" stroke-width="1.66319" stroke-miterlimit="10"/>
<path d="M30.0385 267.232H57.0163" stroke="white" stroke-width="1.99583" stroke-miterlimit="10"/>
<path d="M27.558 275.679H59.2767" stroke="white" stroke-width="1.99583" stroke-miterlimit="10"/>
<path d="M29.9796 284.127H57.0131" stroke="white" stroke-width="1.99583" stroke-miterlimit="10"/>
<mask id="mask2_100_452" style="mask-type:alpha" maskUnits="userSpaceOnUse" x="27" y="259" width="33" height="33">
<path d="M59.4332 275.682C59.4332 284.48 52.2981 291.615 43.4998 291.615C34.6932 291.615 27.5581 284.48 27.5581 275.682C27.5581 266.875 34.6932 259.74 43.4998 259.74C52.2981 259.74 59.4332 266.875 59.4332 275.682Z" fill="#D92500"/>
</mask>
<g mask="url(#mask2_100_452)">
<path d="M65.6992 259.978C61.4148 267.232 58.5533 278.905 66.1707 291.62" stroke="white" stroke-width="1.66319" stroke-miterlimit="10"/>
<path d="M65.6992 259.978C61.4148 267.232 58.5533 278.905 66.1707 291.62" stroke="white" stroke-width="1.66319" stroke-miterlimit="10"/>
<path d="M40.7513 259.978C36.4669 267.232 33.6054 278.905 41.2228 291.62" stroke="white" stroke-width="1.66319" stroke-miterlimit="10"/>
</g>
<mask id="mask3_100_452" style="mask-type:alpha" maskUnits="userSpaceOnUse" x="27" y="259" width="33" height="33">
<path d="M59.4332 275.682C59.4332 284.48 52.2981 291.615 43.4998 291.615C34.6932 291.615 27.5581 284.48 27.5581 275.682C27.5581 266.875 34.6932 259.74 43.4998 259.74C52.2981 259.74 59.4332 266.875 59.4332 275.682Z" fill="#D92500"/>
</mask>
<g mask="url(#mask3_100_452)">
<path d="M46.3985 260.131C51.1128 268.241 52.6713 280.196 45.9628 291.274" stroke="white" stroke-width="1.65498" stroke-miterlimit="10"/>
<path d="M21.4506 260.131C26.165 268.241 27.7234 280.196 21.0149 291.274" stroke="white" stroke-width="1.65498" stroke-miterlimit="10"/>
</g>
<path d="M522.846 309.205H481.919C480.176 309.205 478.764 307.793 478.764 306.051C478.764 304.309 480.176 302.896 481.919 302.896H522.846C524.588 302.896 526 304.309 526 306.051C526 307.793 524.588 309.205 522.846 309.205Z" fill="#ED8E54"/>
<path d="M494.181 345.694H489.18C487.866 345.694 486.801 344.628 486.801 343.314V338.619C486.801 337.305 487.866 336.24 489.18 336.24H494.181C495.495 336.24 496.56 337.305 496.56 338.619V343.314C496.56 344.628 495.495 345.694 494.181 345.694Z" fill="#D19A89"/>
<path d="M20.131 367.547H15.1297C13.8158 367.547 12.7505 366.482 12.7505 365.168V360.472C12.7505 359.159 13.8158 358.093 15.1297 358.093H20.131C21.4449 358.093 22.5102 359.159 22.5102 360.472V365.168C22.5102 366.482 21.4449 367.547 20.131 367.547Z" fill="#FFB8A3"/>
<path d="M402.895 99.9728H319.666C318.282 99.9728 317.16 98.851 317.16 97.4681V77.1471C317.16 75.7642 318.282 74.644 319.666 74.644H402.895C404.278 74.644 405.399 75.7642 405.399 77.1471V97.4681C405.399 98.851 404.278 99.9728 402.895 99.9728Z" fill="#FFB8A3"/>
<path d="M329.179 83.6694H388.37" stroke="white" stroke-width="0.981284" stroke-miterlimit="10"/>
<path d="M329.179 89.7441H353.288" stroke="white" stroke-width="0.981284" stroke-miterlimit="10"/>
<path d="M326.772 97.1079V106.981L339.188 97.1079H326.772Z" fill="#FFB8A3"/>
<path d="M198.41 101.481H158.12C154.207 101.481 151.035 98.308 151.035 94.3945V56.9377C151.035 53.9714 153.44 51.5664 156.406 51.5664H198.41C201.377 51.5664 203.782 53.9714 203.782 56.9377V96.1084C203.782 99.0755 201.377 101.481 198.41 101.481Z" fill="#ED8E54"/>
<path d="M189.718 80.2151L186.715 77.2122C186.179 76.6218 185.482 76.3 184.785 76.3C184.087 76.3 183.39 76.621 182.854 77.1574L181.137 78.8746L180.815 78.7133C180.601 78.606 180.441 78.5528 180.279 78.4455C178.67 77.426 177.222 76.0854 175.828 74.369C175.184 73.5649 174.702 72.8139 174.434 72.1703C174.862 71.7952 175.238 71.3653 175.613 70.9902C175.774 70.8297 175.935 70.6684 176.096 70.5079C176.686 69.9175 177.008 69.2206 177.008 68.5229C177.008 67.826 176.686 67.1291 176.096 66.5387L174.594 65.0368C174.434 64.8763 174.273 64.7142 174.111 64.5004C173.79 64.1778 173.414 63.8036 173.093 63.4817C172.556 62.9454 171.859 62.6235 171.162 62.6235C170.465 62.6235 169.82 62.8913 169.231 63.4817L167.354 65.3587C166.657 66.0564 166.228 66.9678 166.12 67.9865C166.013 69.5956 166.442 71.0975 166.817 72.063C167.676 74.5303 169.015 76.7291 171 79.0892C173.414 81.9316 176.256 84.1844 179.581 85.7935C180.815 86.3831 182.532 87.0791 184.41 87.2405H184.785C186.072 87.2405 187.144 86.759 188.001 85.8467L188.055 85.7935C188.324 85.4717 188.646 85.1498 189.022 84.828C189.236 84.6135 189.503 84.3448 189.718 84.1303C190.845 82.9511 190.845 81.3411 189.718 80.2151ZM188.485 83.0035C188.271 83.218 188.055 83.4334 187.841 83.648C187.465 83.9698 187.144 84.3448 186.768 84.7199C186.232 85.2563 185.642 85.5249 184.837 85.5249H184.57C182.961 85.4176 181.459 84.7731 180.386 84.2367C177.33 82.7349 174.647 80.6442 172.395 77.9632C170.571 75.7636 169.339 73.6713 168.48 71.4726C167.944 70.1852 167.729 69.1665 167.836 68.1478C167.889 67.5582 168.105 67.0219 168.588 66.5927L170.411 64.7691C170.572 64.6077 170.84 64.3932 171.162 64.3932C171.483 64.3932 171.697 64.5545 171.912 64.7691C172.234 65.0909 172.556 65.4119 172.878 65.7337C173.039 65.8942 173.199 66.1096 173.414 66.2701L174.915 67.7728C175.076 67.9333 175.29 68.2551 175.29 68.5229C175.29 68.8447 175.076 69.1133 174.915 69.2738L174.434 69.757C173.951 70.2393 173.522 70.6684 173.093 71.0975L173.039 71.1516C172.503 71.6879 172.609 72.1703 172.717 72.4921V72.5453C173.092 73.5108 173.683 74.369 174.487 75.4418C175.989 77.3195 177.597 78.7665 179.367 79.8925C179.581 80.0538 179.85 80.1619 180.065 80.2684C180.279 80.3765 180.441 80.4297 180.602 80.537L180.654 80.591C181.191 80.8588 181.727 80.7515 182.156 80.3224L184.033 78.4455C184.194 78.2842 184.463 78.0696 184.785 78.0696C185.053 78.0696 185.32 78.2842 185.481 78.4455L188.485 81.4484C188.969 81.9316 188.969 82.4671 188.485 83.0035Z" fill="white"/>
<mask id="mask4_100_452" style="mask-type:alpha" maskUnits="userSpaceOnUse" x="46" y="55" width="425" height="328">
<path d="M470.995 55.1084V382.758H46.881V55.1084H470.995Z" fill="#FFB8A3"/>
</mask>
<g mask="url(#mask4_100_452)">
<mask id="mask5_100_452" style="mask-type:luminance" maskUnits="userSpaceOnUse" x="-55" y="22" width="625" height="417">
<path d="M-54.5735 22.208H569.124V438.006H-54.5735V22.208Z" fill="white"/>
</mask>
<g mask="url(#mask5_100_452)">
<path d="M194.676 290.436L168.723 286.98L168.96 283.966L138.605 288.007C138.605 288.007 122.038 332.405 136.783 424.709H157.893L165.253 331.114H167.952L175.549 424.709H196.661C211.405 332.405 194.676 290.436 194.676 290.436Z" fill="#282828"/>
<path d="M192.606 164.162C189.093 160.03 186.281 155.209 183.891 148.444C181.325 141.182 172.923 144.134 172.923 144.134C172.923 144.134 165.922 135.127 155.386 138.264C144.851 141.401 141.19 148.899 140.975 157.812C140.76 166.725 133.75 168.119 128.351 178.43C118.82 196.633 134.867 211.966 164.076 207.713L164.115 207.429C166.991 208.303 170.516 208.684 174.82 208.429C209.91 206.345 206.524 180.535 192.606 164.162Z" fill="#282828"/>
<path d="M181.118 177.66C184.002 180.276 190.451 170.354 187.664 167.568C184.877 164.783 182.751 169.153 182.751 169.153L181.507 172.115L180.569 176.127L180.345 177.177L181.118 177.66Z" fill="#FF3C00"/>
<path d="M186.317 171.084C186.317 171.084 184.134 170.102 182.194 173.267" stroke="#282828" stroke-width="0.825776" stroke-linecap="round" stroke-linejoin="round"/>
<path d="M147.012 177.36C144.359 180.211 137.094 170.87 139.635 167.858C142.176 164.847 144.664 169.023 144.664 169.023L146.155 171.868L147.429 175.786L147.74 176.814L147.012 177.36Z" fill="#FF3C00"/>
<path d="M141.274 171.246C141.274 171.246 143.366 170.083 145.567 173.073" stroke="#282828" stroke-width="0.825776" stroke-linecap="round" stroke-linejoin="round"/>
<path d="M186.176 158.104C186.176 171.238 176.162 177.466 163.81 177.466C151.457 177.466 141.443 171.238 141.443 158.104C141.443 144.969 151.457 136.035 163.81 136.035C176.162 136.035 186.176 144.969 186.176 158.104Z" fill="#282828"/>
<path d="M172.923 211.239H154.523V187.412H172.923V211.239Z" fill="#FFB8A3"/>
<path d="M151.838 185.926C151.838 185.926 156.959 196.148 163.26 197.744C164.944 198.171 166.742 198.024 168.365 197.449C170.737 196.608 173.744 193.072 174.255 189.16L174.492 186.925C174.492 186.925 163.28 193.03 151.838 185.926Z" fill="#282828"/>
<path d="M183.137 159.018C183.137 167.081 181.996 174.039 180.86 178.977C179.746 183.812 176.613 187.19 172.185 189.91L171.379 190.405C166.695 193.284 160.642 193.35 155.885 190.578C151.089 187.78 147.729 184.093 146.695 178.905C144.815 169.468 144.61 159.018 144.61 159.018C144.61 159.018 142.821 138.663 163.598 139.058C184.375 139.453 183.137 159.018 183.137 159.018Z" fill="#FFB8A3"/>
<path d="M162.422 171.736V173.409C162.422 173.575 162.454 173.735 162.512 173.881C162.743 174.455 163.408 174.73 164.009 174.571L165.301 174.23" stroke="#282828" stroke-width="1.02286" stroke-linecap="round" stroke-linejoin="round"/>
<path d="M166.751 160.702L177.805 163.319C177.805 163.319 177.302 160.478 172.78 159.445C168.258 158.413 166.751 160.702 166.751 160.702Z" fill="#282828"/>
<path d="M160.947 160.702L149.75 163.319C149.75 163.319 150.259 160.478 154.839 159.445C159.419 158.413 160.947 160.702 160.947 160.702Z" fill="#282828"/>
<path d="M155.786 177.466H171.069C171.069 177.466 169.991 181.666 163.06 181.666C157.782 181.666 155.786 177.466 155.786 177.466Z" fill="white"/>
<path d="M144.876 165.766C144.876 165.766 153.183 154.535 151.267 143.158C151.267 143.158 145.102 146.262 143.496 154.27C141.89 162.278 144.876 165.766 144.876 165.766Z" fill="#282828"/>
<path d="M183.15 165.392C183.15 165.392 173.5 153.773 175.416 142.396C175.416 142.396 182.11 146.262 183.715 154.27C185.32 162.279 183.15 165.392 183.15 165.392Z" fill="#282828"/>
<path d="M145.574 147.64C145.574 147.64 155.105 160.451 184.288 158.453C184.288 158.453 180.955 140.183 166.812 138.357C166.812 138.357 150.482 136.408 145.574 147.64Z" fill="#282828"/>
<path d="M118.972 346.791C118.547 347.459 143.261 239.262 135.924 240.897C135.255 241.046 122.404 242.239 120.494 246.123C114.957 257.38 110.987 345.97 110.987 345.97L118.972 346.791Z" fill="#FFB8A3"/>
<path d="M110.987 345.97C110.987 345.97 107.003 364.453 122.062 366.473C123.054 366.606 124.013 366.02 124.339 365.075L124.383 364.949C124.743 363.904 124.22 362.785 123.211 362.334C120.756 361.236 116.947 358.463 118.837 352.164C118.837 352.164 121.014 351.897 122.215 355.958C122.524 357.002 123.697 357.526 124.67 357.037C125.333 356.702 125.707 355.989 125.613 355.25C125.253 352.406 123.822 345.561 118.333 343.724L110.987 345.97Z" fill="#FFB8A3"/>
<path d="M116.054 272.121C116.054 272.121 130.294 292.174 130.368 291.785C130.443 291.399 136.595 255.627 136.595 255.627L118.588 253.756L116.054 272.121Z" fill="#FF3C00"/>
<path d="M155.618 207.316C156.225 207.312 120.427 207.953 113.884 253.156L134.457 256.308L138.606 290.434H196L207.394 227.383C207.394 227.383 199.294 213.722 175.683 207.03L155.618 207.316Z" fill="#593C2B"/>
<path d="M138.12 212.78C138.12 212.78 143.178 219.496 163.907 219.496C184.445 219.496 189.696 212.428 189.696 212.428C189.696 212.428 177.59 205.664 163.542 203.476C163.542 203.476 150.998 205.711 138.12 212.78Z" fill="#FFB8A3"/>
<path d="M156.852 167.833C156.852 168.792 156.072 169.569 155.109 169.569C154.148 169.569 153.369 168.792 153.369 167.833C153.369 166.874 154.148 166.097 155.109 166.097C156.072 166.097 156.852 166.874 156.852 167.833Z" fill="#282828"/>
<mask id="mask6_100_452" style="mask-type:luminance" maskUnits="userSpaceOnUse" x="150" y="162" width="10" height="11">
<path d="M151.507 162.124L151.403 167.771L159.044 167.798L158.575 162.93L151.507 162.124Z" fill="white"/>
<path d="M150.338 167.776L151.611 172.96L159.251 172.987L159.641 167.776H150.338Z" fill="white"/>
</mask>
<g mask="url(#mask6_100_452)">
<path d="M157.026 167.833C157.026 168.888 156.168 169.743 155.109 169.743C154.052 169.743 153.195 168.888 153.195 167.833C153.195 166.778 154.052 165.923 155.109 165.923C156.168 165.923 157.026 166.778 157.026 167.833Z" fill="#FFB8A3"/>
</g>
<path d="M173.36 167.833C173.36 168.792 172.581 169.569 171.619 169.569C170.657 169.569 169.878 168.792 169.878 167.833C169.878 166.874 170.657 166.097 171.619 166.097C172.581 166.097 173.36 166.874 173.36 167.833Z" fill="#282828"/>
<mask id="mask7_100_452" style="mask-type:luminance" maskUnits="userSpaceOnUse" x="166" y="160" width="11" height="15">
<path d="M167.879 160.513L167.774 167.696L175.259 167.801L174.687 161.396L167.879 160.513Z" fill="white"/>
<path d="M166.423 167.417L168.086 174.13L175.571 174.235L176.871 167.417H166.423Z" fill="white"/>
</mask>
<g mask="url(#mask7_100_452)">
<path d="M173.535 167.833C173.535 168.888 172.677 169.743 171.619 169.743C170.561 169.743 169.704 168.888 169.704 167.833C169.704 166.778 170.561 165.923 171.619 165.923C172.677 165.923 173.535 166.778 173.535 167.833Z" fill="#FFB8A3"/>
</g>
<path d="M391.394 246.19C388.797 242.046 374.209 242.191 373.439 242.101C369.496 241.639 375.967 273.022 384.171 300.453C385.744 305.712 391.531 308.451 396.584 306.308C396.639 306.286 396.693 306.261 396.748 306.239C400.746 304.545 403.021 300.301 402.217 296.034C398.315 275.335 394.397 250.984 391.394 246.19Z" fill="#FFB8A3"/>
<path d="M394.871 257.538L376.247 264.765L374.5 255.928L393.786 251.117L394.871 257.538Z" fill="#FF3C00"/>
<path d="M399.428 279.065C399.428 279.065 389.566 287.068 389.986 286.523C390.406 285.978 396.905 267.373 396.905 267.373L399.428 279.065Z" fill="#FF3C00"/>
<path d="M408.405 258.155L385.31 292.507C382.278 297.017 383.744 303.156 388.486 305.81C393.22 308.46 399.209 306.512 401.476 301.583L419.943 261.449L408.405 258.155Z" fill="#FFB8A3"/>
<path d="M415.486 266.124C409.9 264.715 406.512 259.045 407.921 253.458C409.33 247.87 415.002 244.484 420.588 245.892C426.175 247.301 429.562 252.972 428.153 258.559C426.744 264.147 421.073 267.533 415.486 266.124Z" fill="#FFB8A3"/>
<path d="M429.099 228.246L439.965 232.135C440.57 232.351 440.83 233.034 440.546 233.659L428.348 260.537C428.063 261.162 427.342 261.496 426.738 261.278L415.871 257.39C415.266 257.173 415.007 256.49 415.291 255.865L427.49 228.988C427.774 228.362 428.495 228.03 429.099 228.246Z" fill="#5F412F"/>
<path d="M428.06 227.852L438.926 231.742C439.531 231.958 439.791 232.641 439.507 233.267L427.307 260.144C427.023 260.77 426.303 261.101 425.698 260.885L414.831 256.996C414.226 256.78 413.967 256.097 414.251 255.471L426.451 228.595C426.734 227.968 427.455 227.636 428.06 227.852Z" fill="#41291A"/>
<path d="M427.041 230.572L436.588 233.989L426.647 255.894L417.099 252.477L427.041 230.572Z" fill="#E5E5E5"/>
<path d="M436.589 233.989L417.098 252.476L427.041 230.572L436.589 233.989Z" fill="white"/>
<path d="M422.683 244.367C417.493 242.625 411.276 243.51 407.922 253.458L411.918 256.544C414.998 255.88 417.269 252.238 417.952 251.02L425.217 249.252C425.217 249.252 427.873 246.108 422.683 244.367Z" fill="#FFB8A3"/>
<path d="M373.667 290.466L343.312 286.425L343.549 289.44L317.596 292.895C317.596 292.895 300.867 334.865 315.611 427.168H336.723L344.321 333.573H347.019L354.379 427.168H375.49C390.234 334.865 373.667 290.466 373.667 290.466Z" fill="#AF1300"/>
<path d="M334.668 333.573H356.695" stroke="#282828" stroke-width="1.02536" stroke-linecap="round" stroke-linejoin="round"/>
<path d="M352.806 204.927C352.199 204.924 391.846 210.413 398.388 255.617L377.814 258.77L373.667 292.895H316.273L304.878 229.844C304.878 229.844 317.594 211.62 341.204 204.927H352.806Z" fill="#ED8E54"/>
<path d="M377.815 258.77L379.599 239.033" stroke="#282828" stroke-width="1.02536" stroke-linecap="round" stroke-linejoin="round"/>
<path d="M356.576 205.574V189.873H338.176V205.758C337.234 206.039 335.666 206.607 333.233 207.763L347.583 216.311L362.254 207.763C362.254 207.763 359.925 206.408 356.576 205.574Z" fill="#FFB8A3"/>
<path d="M338.005 191.791C338.005 191.791 341.309 200.565 350.13 199.807C358.238 199.111 356.947 186.952 356.947 186.952L338.005 191.791Z" fill="#282828"/>
<path d="M329.98 180.121C327.095 182.737 320.646 172.815 323.434 170.029C326.22 167.244 328.346 171.614 328.346 171.614L329.59 174.576L330.528 178.588L330.752 179.638L329.98 180.121Z" fill="#FF3C00"/>
<path d="M324.781 173.544C324.781 173.544 326.963 172.562 328.902 175.727" stroke="#282828" stroke-width="0.825776" stroke-linecap="round" stroke-linejoin="round"/>
<path d="M364.086 179.821C366.739 182.671 374.004 173.33 371.462 170.318C368.921 167.307 366.434 171.482 366.434 171.482L364.944 174.328L363.669 178.245L363.358 179.273L364.086 179.821Z" fill="#FF3C00"/>
<path d="M369.823 173.706C369.823 173.706 367.731 172.543 365.531 175.532" stroke="#282828" stroke-width="0.825776" stroke-linecap="round" stroke-linejoin="round"/>
<path d="M324.922 160.564C324.922 173.698 334.936 179.927 347.288 179.927C359.641 179.927 369.655 173.698 369.655 160.564C369.655 147.43 359.641 138.495 347.288 138.495C334.936 138.495 324.922 147.43 324.922 160.564Z" fill="#282828"/>
<path d="M327.962 161.477C327.962 169.54 329.101 176.498 330.238 181.436C331.351 186.271 334.485 189.651 338.912 192.371L339.718 192.867C344.402 195.744 350.456 195.811 355.213 193.038C360.01 190.241 363.369 186.553 364.402 181.365C366.282 171.929 366.487 161.477 366.487 161.477C366.487 161.477 368.277 141.123 347.5 141.519C326.723 141.915 327.962 161.477 327.962 161.477Z" fill="#FFB8A3"/>
<path d="M345.964 173.094V175.91C345.964 176.077 345.995 176.237 346.054 176.384C346.285 176.959 346.95 177.235 347.55 177.075L348.841 176.733" stroke="#282828" stroke-width="1.02453" stroke-linecap="round" stroke-linejoin="round"/>
<path d="M342.661 162.172L332.334 164.592C332.334 164.592 332.804 161.965 337.029 161.01C341.253 160.054 342.661 162.172 342.661 162.172Z" fill="#282828"/>
<path d="M351.825 162.172L361.794 164.592C361.794 164.592 361.341 161.965 357.262 161.01C353.184 160.054 351.825 162.172 351.825 162.172Z" fill="#282828"/>
<path d="M340.478 180.354H353.907C353.907 180.354 347.955 187.594 340.478 180.354Z" fill="white"/>
<path d="M345.409 170.432C345.409 174.522 342.095 177.837 338.005 177.837C333.915 177.837 330.599 174.522 330.599 170.432C330.599 166.342 333.915 163.026 338.005 163.026C342.095 163.026 345.409 166.342 345.409 170.432Z" stroke="#D19A89" stroke-width="1.116" stroke-miterlimit="10"/>
<path d="M363.602 170.432C363.602 174.522 360.287 177.837 356.197 177.837C352.107 177.837 348.791 174.522 348.791 170.432C348.791 166.342 352.107 163.026 356.197 163.026C360.287 163.026 363.602 166.342 363.602 170.432Z" stroke="#D19A89" stroke-width="1.116" stroke-miterlimit="10"/>
<path d="M345.409 170.431C345.409 170.431 347.163 168.793 348.791 170.431" stroke="#D19A89" stroke-width="1.116" stroke-miterlimit="10"/>
<path d="M330.6 170.431L328.266 170.373" stroke="#D19A89" stroke-width="1.116" stroke-miterlimit="10"/>
<path d="M363.601 170.431L365.948 170.373" stroke="#D19A89" stroke-width="1.116" stroke-miterlimit="10"/>
<path d="M366.221 168.226C366.221 168.226 357.913 156.997 359.829 145.62C359.829 145.62 365.995 148.722 367.601 156.731C369.207 164.74 366.221 168.226 366.221 168.226Z" fill="#282828"/>
<path d="M327.948 168.987C327.948 168.987 337.597 156.233 335.681 144.855C335.681 144.855 328.988 148.722 327.382 156.731C325.777 164.74 327.948 168.987 327.948 168.987Z" fill="#282828"/>
<path d="M365.523 150.099C365.523 150.099 354.857 161.777 325.673 159.777C325.673 159.777 330.142 142.642 344.285 140.817C344.285 140.817 360.616 138.867 365.523 150.099Z" fill="#282828"/>
<path d="M378.709 136.449C378.709 144.144 372.471 150.383 364.775 150.383C357.079 150.383 350.841 144.144 350.841 136.449C350.841 128.753 357.079 122.516 364.775 122.516C372.471 122.516 378.709 128.753 378.709 136.449Z" fill="#282828"/>
<path d="M340.478 169.756C340.478 170.715 339.698 171.493 338.736 171.493C337.775 171.493 336.995 170.715 336.995 169.756C336.995 168.798 337.775 168.02 338.736 168.02C339.698 168.02 340.478 168.798 340.478 169.756Z" fill="#282828"/>
<path d="M356.987 169.756C356.987 170.715 356.208 171.493 355.246 171.493C354.283 171.493 353.504 170.715 353.504 169.756C353.504 168.798 354.283 168.02 355.246 168.02C356.208 168.02 356.987 168.798 356.987 169.756Z" fill="#282828"/>
<path d="M306.916 301.149C306.916 301.149 323.399 299.64 334.669 292.205L334.372 285.663L306.905 289.404L306.916 301.149Z" fill="#FF3C00"/>
<path d="M120.257 238.212L162.185 281.586C162.185 281.586 186.512 304.038 172.803 318.002C161.138 326.605 152.492 315.893 152.492 315.893C152.492 315.893 120.216 276.737 104.836 245.841C104.836 245.841 103.83 241.386 110.648 237.985C117.521 234.556 120.257 238.212 120.257 238.212Z" fill="#FFB8A3"/>
<path d="M124.255 245.426C124.585 250.426 120.798 254.747 115.798 255.077C110.798 255.406 106.477 251.619 106.147 246.62C105.818 241.619 109.604 237.299 114.604 236.969C119.605 236.639 123.925 240.426 124.255 245.426Z" fill="#FFB8A3"/>
<path d="M120.875 239.079C120.875 239.079 122.694 244.783 116.563 248.008C110.975 250.949 107.002 248.399 105.073 247.415C98.1183 243.872 89.5434 227.378 89.5434 227.378C89.5434 227.378 112.633 212.706 112.475 213.124C112.316 213.543 120.875 239.079 120.875 239.079Z" fill="#FFB8A3"/>
<path d="M120.875 239.078C120.357 237.778 122.528 222.139 123.176 216.309C123.332 214.903 122.123 213.65 120.637 213.674C119.67 213.689 118.221 214.111 117.802 215.59L113.757 227.644L120.875 239.078Z" fill="#FFB8A3"/>
<path d="M117.136 223.442L108.345 202.871C107.791 201.495 106.15 200.81 104.774 201.38C103.583 201.872 102.995 203.148 103.401 204.36L108.615 219.954L117.136 223.442Z" fill="#FFB8A3"/>
<path d="M106.902 217.31L97.8452 203.2C97.0808 201.959 95.4145 201.53 94.1735 202.255C93.0976 202.884 92.6915 204.185 93.2153 205.324L101.257 222.134L106.902 217.31Z" fill="#FFB8A3"/>
<path d="M101.547 223.144L90.9919 209.627C90.0204 208.37 88.191 208.074 86.9279 208.968C85.7404 209.808 85.471 211.407 86.3104 212.635L95.1859 225.625L101.547 223.144Z" fill="#FFB8A3"/>
<path d="M89.5434 227.378L81.8014 219.363C81.0927 218.378 81.2842 217.068 82.2383 216.367C83.1511 215.696 84.4722 215.798 85.3219 216.606L95.1849 225.625L89.5434 227.378Z" fill="#FFB8A3"/>
<path d="M111.9 225.054C111.9 225.054 103.823 228.968 109.32 239.556" stroke="#282828" stroke-width="1.27401" stroke-linecap="round" stroke-linejoin="round"/>
<path d="M154.233 290.323C147.035 299.135 145.524 310.147 154.251 317.448C157.388 320.072 162.176 322.151 166.533 321.031C181.056 317.298 202.98 285.833 202.98 285.833L196.57 232.691L158.279 284.519L154.233 290.323Z" fill="#FFB8A3"/>
<path d="M169.147 268.174C169.147 268.174 183.503 288.709 195.493 295.78L202.978 285.833L172.596 263.507L169.147 268.174Z" fill="#FF3C00"/>
<path d="M229.734 205.816C229.734 205.816 189.124 215.146 167.657 262.476C167.657 262.476 180.825 282.142 201.843 290.821L215.82 273.554L229.734 205.816Z" fill="#D19A89"/>
<path d="M208.555 355.982L208.599 438.005H253.511L256.63 355.982H208.555Z" fill="#593C2B"/>
<path d="M257.313 355.982L260.432 438.005H305.343L305.388 355.982H257.313Z" fill="#593C2B"/>
<path d="M281.03 387.302H234.918V355.982H281.03V387.302Z" fill="#593C2B"/>
<path d="M333.562 277.311C336.327 307.859 333.41 330.116 334.216 386.326L307.598 387.441L303.632 282.226L333.562 277.311Z" fill="#FFB8A3"/>
<path d="M280.472 206.979C280.472 206.979 332.828 220.146 342.314 286.602C342.314 286.602 316.689 297.711 291.01 292.933L296.788 270.706L280.472 206.979Z" fill="#D19A89"/>
<path d="M229.743 205.681C213.865 213.826 203.882 224.627 203.882 224.627L207.014 362.721H307.079L306.754 225.339C306.754 225.339 294.141 212.996 280.471 206.979C268.861 201.868 241.032 199.891 229.743 205.681Z" fill="#D19A89"/>
<path d="M288.073 265.797C283.875 265.797 280.471 262.394 280.471 258.196V250.086H295.674V258.196C295.674 262.394 292.27 265.797 288.073 265.797Z" stroke="#282828" stroke-width="0.831597" stroke-miterlimit="10"/>
<path d="M306.916 293.446L308.213 248.272" stroke="#282828" stroke-width="1.16174" stroke-linecap="round" stroke-linejoin="round"/>
<path d="M205.42 285.917L203.258 246.758" stroke="#282828" stroke-width="1.16174" stroke-linecap="round" stroke-linejoin="round"/>
<path d="M230.916 155.241L226.744 134.606C226.509 132.925 225.857 130.332 226.655 127.894C227.977 123.862 232.833 116.118 241.132 119.663L242.926 127.833C242.926 127.833 234.308 129.573 230.851 140.848L230.916 155.241Z" fill="#282828"/>
<path d="M240.521 123.922C240.37 126.634 237.976 138.498 229.563 142.82C229.563 142.82 222.193 127.015 240.521 123.922Z" fill="#282828"/>
<path d="M270.037 201.881V166.84H237.734V201.881L228.119 206.264C228.119 206.264 230.374 220.787 254.224 221.11C278.075 221.431 280.471 206.979 280.471 206.979L270.037 201.881Z" fill="#FFB8A3"/>
<path d="M241.132 119.663C241.132 119.663 247.06 104.024 265.341 112.338C276.406 117.37 279.505 124.117 280.823 128.898C281.262 130.486 281.436 132.987 281.317 134.473L276.895 155.242L259.632 126.508L242.926 127.833L241.132 119.663Z" fill="#282828"/>
<path d="M276.895 155.242C276.895 155.242 279.073 151.778 283.565 153.482C288.057 155.185 286.025 166.094 279.287 167.484C279.287 167.484 276.872 168.01 274.977 166.357C274.977 166.357 276.635 158.3 276.895 155.242Z" fill="#FF3C00"/>
<path d="M282.674 157.329C282.674 157.329 278.912 156.073 276.241 161.614" stroke="#282828" stroke-width="1.16174" stroke-linecap="round" stroke-linejoin="round"/>
<path d="M230.916 155.242C230.916 155.242 228.737 151.778 224.246 153.482C219.754 155.185 221.787 166.094 228.524 167.484C228.524 167.484 230.939 168.01 232.834 166.357C232.834 166.357 231.176 158.3 230.916 155.242Z" fill="#FF3C00"/>
<path d="M225.136 157.329C225.136 157.329 228.899 156.073 231.57 161.614" stroke="#282828" stroke-width="1.16174" stroke-linecap="round" stroke-linejoin="round"/>
<path d="M277.345 144.89C277.347 151.467 276.702 165.225 272.659 173.391C268.863 181.058 262.585 185.185 254.355 185.431C246.123 185.676 239.992 182.504 235.078 172.553C230.164 162.603 230.399 145.013 230.399 145.013C230.399 145.013 230.399 121.52 253.617 121.52C278.071 121.52 277.345 144.89 277.345 144.89Z" fill="#FFB8A3"/>
<path d="M237.977 177.456C237.977 177.456 240.681 191.182 252.627 192.759C266.374 194.574 270.037 177.804 270.037 177.804C270.037 177.804 263.962 185.417 254.355 185.429C243.64 185.443 237.977 177.456 237.977 177.456Z" fill="#282828"/>
<path d="M252.216 154.643V160.081C252.216 160.315 252.261 160.537 252.343 160.743C252.665 161.549 253.592 161.935 254.43 161.712L256.232 161.232" stroke="#282828" stroke-width="1.16174" stroke-linecap="round" stroke-linejoin="round"/>
<path d="M257.653 141.531L271.863 145.203C271.863 145.203 271.217 141.216 265.403 139.768C259.589 138.32 257.653 141.531 257.653 141.531Z" fill="#282828"/>
<path d="M248.822 141.531L234.61 145.203C234.61 145.203 235.256 141.216 241.07 139.768C246.884 138.32 248.822 141.531 248.822 141.531Z" fill="#282828"/>
<path d="M245.995 165.558C245.995 165.558 248.092 167.164 253.604 167.164C258.618 167.164 261.749 165.558 261.749 165.558" stroke="#282828" stroke-width="1.16174" stroke-linecap="round" stroke-linejoin="round"/>
<path d="M251.659 152.664C251.659 157.624 247.637 161.645 242.676 161.645C237.716 161.645 233.694 157.624 233.694 152.664C233.694 147.703 237.716 143.683 242.676 143.683C247.637 143.683 251.659 147.703 251.659 152.664Z" stroke="white" stroke-width="1.62245" stroke-miterlimit="10"/>
<path d="M273.722 152.664C273.722 157.624 269.701 161.645 264.74 161.645C259.78 161.645 255.758 157.624 255.758 152.664C255.758 147.703 259.78 143.683 264.74 143.683C269.701 143.683 273.722 147.703 273.722 152.664Z" stroke="white" stroke-width="1.62245" stroke-miterlimit="10"/>
<path d="M251.659 152.664C251.659 152.664 253.786 150.679 255.76 152.664" stroke="white" stroke-width="1.62245" stroke-miterlimit="10"/>
<path d="M233.696 152.664L230.684 152.587" stroke="white" stroke-width="1.62245" stroke-miterlimit="10"/>
<path d="M273.722 152.664L277.084 152.611" stroke="white" stroke-width="1.62245" stroke-miterlimit="10"/>
<path d="M237.976 124.458C237.976 124.458 242.29 136.713 261.752 136.337C274.977 136.082 278.137 145.651 278.137 145.651C278.137 145.651 275.835 124.256 275.231 124.458C274.625 124.661 255.107 119.251 255.107 119.251L237.976 124.458Z" fill="#282828"/>
<path d="M245.359 152.047C245.359 153.214 244.412 154.161 243.245 154.161C242.078 154.161 241.132 153.214 241.132 152.047C241.132 150.879 242.078 149.933 243.245 149.933C244.412 149.933 245.359 150.879 245.359 152.047Z" fill="#282828"/>
<path d="M265.177 152.047C265.177 153.214 264.23 154.161 263.063 154.161C261.896 154.161 260.949 153.214 260.949 152.047C260.949 150.879 261.896 149.933 263.063 149.933C264.23 149.933 265.177 150.879 265.177 152.047Z" fill="#282828"/>
</g>
</g>
<path d="M84.8228 99.9619H-0.00012207" stroke="#D19A89" stroke-width="6.65278" stroke-linecap="round"/>
</g>
</g>
</svg>
