<svg width="1102" height="2119" viewBox="0 0 1102 2119" fill="none" xmlns="http://www.w3.org/2000/svg">
<g opacity="0.2">
<path d="M174.368 1999.59C268.889 2167.54 387.341 2155.67 438.938 1973.07C441.155 1965.22 443.2 1957.18 445.1 1948.97C536.704 2011.44 638.498 1951.29 716.223 1800.82C809.964 1856.61 917.211 1735.77 967.682 1505.26C1023.88 1248.61 988.403 953.233 888.447 845.527C855.987 810.551 820.721 799.691 785.967 809.728C761.856 734.822 730.061 673.153 691.372 631.464C551.849 481.125 375.682 647.258 297.893 1002.53C281.483 1077.48 270.785 1154.85 265.391 1231.7C197.277 1195.81 131.611 1241.12 96.6463 1364.86C45.0495 1547.46 79.8468 1831.64 174.368 1999.59Z" fill="#65BDBE"/>
<mask id="mask0_89_6" style="mask-type:alpha" maskUnits="userSpaceOnUse" x="0" y="0" width="1102" height="2118">
<path d="M174.801 1998.8C269.209 2166.55 387.517 2154.69 439.052 1972.31C441.266 1964.47 443.309 1956.44 445.207 1948.25C536.7 2010.64 638.372 1950.57 716.003 1800.27C809.631 1855.99 916.749 1735.3 967.159 1505.07C1023.29 1248.72 1068.8 1111.21 1084.26 864.27C1089.22 785.074 1117.86 784.708 1088.2 483.874C1064.12 409.059 1052.44 177.051 969.189 97.2274C826.979 -39.1209 488.254 4.72922 310.442 14.3702C272.941 16.4032 120.303 31.938 28.5913 270.474C-22.7896 449.135 9.9166 1020.52 15.4065 1301.35C19.6102 1516.4 80.394 1831.06 174.801 1998.8Z" fill="#F2D470"/>
</mask>
<g mask="url(#mask0_89_6)">
<path d="M199.319 991.972C186.285 956.348 183.677 923.549 175.14 839.154C164.541 734.378 144.852 658.349 150.803 646.083C172.848 600.643 187.2 808.593 202.553 796.534C226.365 777.831 168.613 539.606 194.743 521.282C220.872 502.956 233.36 767.227 249.373 754.921C270.976 738.319 235.862 446.695 257.406 437.98C299.352 421.009 273.093 732.492 297.206 727.24C307.895 724.912 303.561 437.683 324.165 442.56C362.519 451.639 317.645 819.032 347.919 829.044C367.926 835.663 362.402 704.588 403.05 673.613C459.893 630.294 393.926 764.522 384.133 867.447C377.577 936.359 332.95 1000.03 333.197 1071.34C333.444 1142.64 392.75 2413.59 392.75 2413.59L276.781 2460.12C276.781 2460.12 261.831 1158.48 243.027 1098.54C234.954 1072.81 221.838 1053.51 199.319 991.972Z" fill="#8F6252"/>
</g>
<mask id="mask1_89_6" style="mask-type:alpha" maskUnits="userSpaceOnUse" x="0" y="0" width="1102" height="2118">
<path d="M174.801 1998.8C269.209 2166.55 387.517 2154.69 439.052 1972.31C441.266 1964.47 443.309 1956.44 445.207 1948.25C536.7 2010.64 638.372 1950.57 716.003 1800.27C809.631 1855.99 916.749 1735.3 967.159 1505.07C1023.29 1248.72 1068.8 1111.21 1084.26 864.27C1089.22 785.074 1117.86 784.708 1088.2 483.874C1064.12 409.059 1052.44 177.051 969.189 97.2274C826.979 -39.1209 488.254 4.72922 310.442 14.3702C272.941 16.4032 120.303 31.938 28.5913 270.474C-22.7896 449.135 9.9166 1020.52 15.4065 1301.35C19.6102 1516.4 80.394 1831.06 174.801 1998.8Z" fill="#F2D470"/>
</mask>
<g mask="url(#mask1_89_6)">
<path d="M473.425 710.971C465.217 665.163 465.524 630.383 464.78 539.448C463.856 426.551 453.145 335.19 459.056 327.632C480.952 299.634 477.191 518.441 490.955 518.487C512.301 518.56 482.039 235.395 505.296 237.669C528.553 239.942 518.961 513.483 533.295 513.802C552.634 514.234 545.367 195.592 564.057 203.846C600.449 219.918 554.847 510.087 575.424 523.817C584.548 529.905 602.708 239.869 619.58 260.95C650.99 300.187 585.568 631.5 610.145 665.311C626.387 687.659 631.707 552.515 668.075 553.587C718.931 555.088 653.543 637.127 637.541 732.13C626.828 795.739 584.647 824.163 579.446 895.514C574.245 966.865 635.456 2465.71 635.456 2465.71L547.925 2471.05C547.925 2471.05 513.111 926.32 501.92 851.71C497.116 819.679 487.603 790.103 473.425 710.971Z" fill="#68565A"/>
<path d="M473.425 710.971C465.217 665.163 465.524 630.383 464.78 539.448C463.856 426.551 453.145 335.19 459.056 327.632C480.952 299.634 477.191 518.441 490.955 518.487C512.301 518.56 482.039 235.395 505.296 237.669C528.553 239.942 518.961 513.483 533.295 513.802C552.634 514.234 545.367 195.592 564.057 203.846C600.449 219.918 554.847 510.087 575.424 523.817C584.548 529.905 602.708 239.869 619.58 260.95C650.99 300.187 585.568 631.5 610.145 665.311C626.387 687.659 631.707 552.515 668.075 553.587C718.931 555.088 653.543 637.127 637.541 732.13C626.828 795.739 584.647 824.163 579.446 895.514C574.245 966.865 635.456 2465.71 635.456 2465.71L547.925 2471.05C547.925 2471.05 513.111 926.32 501.92 851.71C497.116 819.679 487.603 790.103 473.425 710.971Z" stroke="#68565A" stroke-width="0.833698" stroke-miterlimit="10"/>
</g>
<mask id="mask2_89_6" style="mask-type:alpha" maskUnits="userSpaceOnUse" x="0" y="0" width="1102" height="2118">
<path d="M174.801 1998.8C269.209 2166.55 387.517 2154.69 439.052 1972.31C441.266 1964.47 443.309 1956.44 445.207 1948.25C536.7 2010.64 638.372 1950.57 716.003 1800.27C809.631 1855.99 916.749 1735.3 967.159 1505.07C1023.29 1248.72 1068.8 1111.21 1084.26 864.27C1089.22 785.074 1117.86 784.708 1088.2 483.874C1064.12 409.059 1052.44 177.051 969.189 97.2274C826.979 -39.1209 488.254 4.72922 310.442 14.3702C272.941 16.4032 120.303 31.938 28.5913 270.474C-22.7896 449.135 9.9166 1020.52 15.4065 1301.35C19.6102 1516.4 80.394 1831.06 174.801 1998.8Z" fill="#F2D470"/>
</mask>
<g mask="url(#mask2_89_6)">
<path d="M672.669 923.563C665.744 881.69 667.748 846.968 671.275 756.877C675.654 645.029 668.127 558.981 675.054 548.816C700.72 511.166 686.069 730.428 701.356 724.308C725.066 714.817 705.001 446.801 730.728 438.642C756.456 430.485 732.705 706.787 748.613 700.684C770.077 692.449 777.255 378.853 797.624 378.689C837.282 378.367 772.736 687.333 794.938 691.768C804.782 693.733 838.835 397.195 856.571 410.596C889.585 435.543 801.052 794.299 826.734 816.913C843.71 831.858 856.087 695.09 896.436 679.865C952.861 658.574 876.294 769.445 853.971 871.082C839.024 939.133 790.808 986.294 781.615 1059.57C772.422 1132.85 757.443 2400.07 757.443 2400.07L647.848 2400.56C647.848 2400.56 706.448 1119.92 697.587 1050.75C693.783 1021.05 684.631 995.898 672.669 923.563Z" fill="#BC856E"/>
</g>
</g>
</svg>
